<mxfile host="app.diagrams.net" modified="2023-04-06T17:15:26.568Z" agent="Mozilla/5.0 (Windows NT 10.0; Win64; x64; rv:109.0) Gecko/20100101 Firefox/111.0" etag="kxRKM9O1AHI346QmB6BE" version="21.1.2" type="device">
  <diagram id="5urPLMQb_V5D_lJRH4lH" name="Page-1">
    <mxGraphModel dx="2074" dy="1274" grid="1" gridSize="10" guides="1" tooltips="1" connect="1" arrows="1" fold="1" page="1" pageScale="1" pageWidth="850" pageHeight="1100" math="0" shadow="0">
      <root>
        <mxCell id="0" />
        <mxCell id="1" parent="0" />
        <mxCell id="iH-Qjy_dWgZsUewNH3ee-1" value="&lt;b&gt;TY13&lt;/b&gt;" style="whiteSpace=wrap;html=1;aspect=fixed;fillColor=#e1d5e7;strokeColor=#9673a6;" parent="1" vertex="1">
          <mxGeometry x="728" y="780" width="50" height="50" as="geometry" />
        </mxCell>
        <mxCell id="iH-Qjy_dWgZsUewNH3ee-2" value="&lt;b&gt;TY12&lt;/b&gt;" style="whiteSpace=wrap;html=1;aspect=fixed;fillColor=#e1d5e7;strokeColor=#9673a6;" parent="1" vertex="1">
          <mxGeometry x="668" y="780" width="50" height="50" as="geometry" />
        </mxCell>
        <mxCell id="iH-Qjy_dWgZsUewNH3ee-3" value="&lt;b&gt;TY11&lt;/b&gt;" style="whiteSpace=wrap;html=1;aspect=fixed;fillColor=#e1d5e7;strokeColor=#9673a6;" parent="1" vertex="1">
          <mxGeometry x="157" y="690" width="50" height="50" as="geometry" />
        </mxCell>
        <mxCell id="iH-Qjy_dWgZsUewNH3ee-4" value="&lt;b&gt;TY10&lt;/b&gt;" style="whiteSpace=wrap;html=1;aspect=fixed;fillColor=#e1d5e7;strokeColor=#9673a6;" parent="1" vertex="1">
          <mxGeometry x="79.5" y="690" width="50" height="50" as="geometry" />
        </mxCell>
        <mxCell id="iH-Qjy_dWgZsUewNH3ee-5" value="&lt;b&gt;TY9&lt;/b&gt;" style="whiteSpace=wrap;html=1;aspect=fixed;fillColor=#e1d5e7;strokeColor=#9673a6;" parent="1" vertex="1">
          <mxGeometry x="490" y="780" width="50" height="50" as="geometry" />
        </mxCell>
        <mxCell id="iH-Qjy_dWgZsUewNH3ee-6" value="&lt;b&gt;TY8&lt;/b&gt;" style="whiteSpace=wrap;html=1;aspect=fixed;fillColor=#e1d5e7;strokeColor=#9673a6;" parent="1" vertex="1">
          <mxGeometry x="430" y="780" width="50" height="50" as="geometry" />
        </mxCell>
        <mxCell id="iH-Qjy_dWgZsUewNH3ee-7" value="&lt;b&gt;TY7&lt;/b&gt;" style="whiteSpace=wrap;html=1;aspect=fixed;fillColor=#e1d5e7;strokeColor=#9673a6;" parent="1" vertex="1">
          <mxGeometry x="370" y="780" width="50" height="50" as="geometry" />
        </mxCell>
        <mxCell id="iH-Qjy_dWgZsUewNH3ee-8" value="&lt;b&gt;TY6&lt;/b&gt;" style="whiteSpace=wrap;html=1;aspect=fixed;fillColor=#e1d5e7;strokeColor=#9673a6;" parent="1" vertex="1">
          <mxGeometry x="788" y="440" width="50" height="50" as="geometry" />
        </mxCell>
        <mxCell id="iH-Qjy_dWgZsUewNH3ee-9" value="&lt;b&gt;TY5&lt;/b&gt;" style="whiteSpace=wrap;html=1;aspect=fixed;fillColor=#e1d5e7;strokeColor=#9673a6;" parent="1" vertex="1">
          <mxGeometry x="738" y="690" width="50" height="50" as="geometry" />
        </mxCell>
        <mxCell id="iH-Qjy_dWgZsUewNH3ee-10" value="&lt;b&gt;TY4&lt;/b&gt;" style="whiteSpace=wrap;html=1;aspect=fixed;fillColor=#e1d5e7;strokeColor=#9673a6;" parent="1" vertex="1">
          <mxGeometry x="638" y="690" width="50" height="50" as="geometry" />
        </mxCell>
        <mxCell id="iH-Qjy_dWgZsUewNH3ee-11" value="&lt;b&gt;TY3&lt;/b&gt;" style="whiteSpace=wrap;html=1;aspect=fixed;fillColor=#e1d5e7;strokeColor=#9673a6;" parent="1" vertex="1">
          <mxGeometry x="130" y="780" width="50" height="50" as="geometry" />
        </mxCell>
        <mxCell id="iH-Qjy_dWgZsUewNH3ee-12" value="&lt;b&gt;TY2&lt;/b&gt;" style="whiteSpace=wrap;html=1;aspect=fixed;fillColor=#e1d5e7;strokeColor=#9673a6;" parent="1" vertex="1">
          <mxGeometry x="10" y="690" width="50" height="50" as="geometry" />
        </mxCell>
        <mxCell id="iH-Qjy_dWgZsUewNH3ee-13" value="&lt;b&gt;TY1&lt;/b&gt;" style="whiteSpace=wrap;html=1;aspect=fixed;fillColor=#e1d5e7;strokeColor=#9673a6;" parent="1" vertex="1">
          <mxGeometry x="688" y="440" width="50" height="50" as="geometry" />
        </mxCell>
        <mxCell id="ObGAdsP4N7KiZt7P1WI1-11" value="&lt;b&gt;TY17&lt;/b&gt;" style="whiteSpace=wrap;html=1;aspect=fixed;fillColor=#e1d5e7;strokeColor=#9673a6;" parent="1" vertex="1">
          <mxGeometry x="190" y="840" width="50" height="50" as="geometry" />
        </mxCell>
        <mxCell id="ObGAdsP4N7KiZt7P1WI1-12" value="&lt;b&gt;TY16&lt;/b&gt;" style="whiteSpace=wrap;html=1;aspect=fixed;fillColor=#e1d5e7;strokeColor=#9673a6;" parent="1" vertex="1">
          <mxGeometry x="130" y="840" width="50" height="50" as="geometry" />
        </mxCell>
        <mxCell id="ObGAdsP4N7KiZt7P1WI1-13" value="&lt;b&gt;TY15&lt;/b&gt;" style="whiteSpace=wrap;html=1;aspect=fixed;fillColor=#e1d5e7;strokeColor=#9673a6;" parent="1" vertex="1">
          <mxGeometry x="70" y="840" width="50" height="50" as="geometry" />
        </mxCell>
        <mxCell id="ObGAdsP4N7KiZt7P1WI1-14" value="&lt;b&gt;TY14&lt;/b&gt;" style="whiteSpace=wrap;html=1;aspect=fixed;fillColor=#e1d5e7;strokeColor=#9673a6;" parent="1" vertex="1">
          <mxGeometry x="10" y="840" width="50" height="50" as="geometry" />
        </mxCell>
        <mxCell id="ObGAdsP4N7KiZt7P1WI1-15" value="T1" style="rounded=0;whiteSpace=wrap;html=1;fontStyle=1;fillColor=#d5e8d4;strokeColor=#82b366;" parent="1" vertex="1">
          <mxGeometry x="411" y="190" width="50" height="50" as="geometry" />
        </mxCell>
        <mxCell id="ObGAdsP4N7KiZt7P1WI1-16" value="T2" style="rounded=0;whiteSpace=wrap;html=1;fontStyle=1;fillColor=#d5e8d4;strokeColor=#82b366;" parent="1" vertex="1">
          <mxGeometry x="632.5" y="190" width="50" height="50" as="geometry" />
        </mxCell>
        <mxCell id="ObGAdsP4N7KiZt7P1WI1-17" value="T3" style="rounded=0;whiteSpace=wrap;html=1;fontStyle=1;fillColor=#d5e8d4;strokeColor=#82b366;" parent="1" vertex="1">
          <mxGeometry x="710" y="190" width="50" height="50" as="geometry" />
        </mxCell>
        <mxCell id="ObGAdsP4N7KiZt7P1WI1-18" value="T4" style="rounded=0;whiteSpace=wrap;html=1;fontStyle=1;fillColor=#d5e8d4;strokeColor=#82b366;" parent="1" vertex="1">
          <mxGeometry x="10" y="440" width="50" height="50" as="geometry" />
        </mxCell>
        <mxCell id="ObGAdsP4N7KiZt7P1WI1-19" value="T5" style="rounded=0;whiteSpace=wrap;html=1;fontStyle=1;fillColor=#d5e8d4;strokeColor=#82b366;" parent="1" vertex="1">
          <mxGeometry x="80" y="440" width="50" height="50" as="geometry" />
        </mxCell>
        <mxCell id="ObGAdsP4N7KiZt7P1WI1-20" value="T7" style="rounded=0;whiteSpace=wrap;html=1;fontStyle=1;fillColor=#d5e8d4;strokeColor=#82b366;" parent="1" vertex="1">
          <mxGeometry x="498" y="440" width="50" height="50" as="geometry" />
        </mxCell>
        <mxCell id="ObGAdsP4N7KiZt7P1WI1-21" value="T6" style="rounded=0;whiteSpace=wrap;html=1;fontStyle=1;fillColor=#d5e8d4;strokeColor=#82b366;" parent="1" vertex="1">
          <mxGeometry x="257.5" y="440" width="50" height="50" as="geometry" />
        </mxCell>
        <mxCell id="ObGAdsP4N7KiZt7P1WI1-84" style="edgeStyle=orthogonalEdgeStyle;rounded=0;orthogonalLoop=1;jettySize=auto;html=1;exitX=0.25;exitY=0;exitDx=0;exitDy=0;endArrow=none;endFill=0;startArrow=classic;startFill=1;" parent="1" source="ObGAdsP4N7KiZt7P1WI1-22" edge="1">
          <mxGeometry relative="1" as="geometry">
            <mxPoint x="23" y="60" as="targetPoint" />
          </mxGeometry>
        </mxCell>
        <mxCell id="ObGAdsP4N7KiZt7P1WI1-85" style="edgeStyle=orthogonalEdgeStyle;rounded=0;orthogonalLoop=1;jettySize=auto;html=1;exitX=0.5;exitY=0;exitDx=0;exitDy=0;endArrow=none;endFill=0;startArrow=classic;startFill=1;" parent="1" source="ObGAdsP4N7KiZt7P1WI1-22" edge="1">
          <mxGeometry relative="1" as="geometry">
            <mxPoint x="35" y="60" as="targetPoint" />
          </mxGeometry>
        </mxCell>
        <mxCell id="ObGAdsP4N7KiZt7P1WI1-86" style="edgeStyle=orthogonalEdgeStyle;rounded=0;orthogonalLoop=1;jettySize=auto;html=1;exitX=0.75;exitY=0;exitDx=0;exitDy=0;endArrow=none;endFill=0;startArrow=classic;startFill=1;" parent="1" source="ObGAdsP4N7KiZt7P1WI1-22" edge="1">
          <mxGeometry relative="1" as="geometry">
            <mxPoint x="48" y="60" as="targetPoint" />
          </mxGeometry>
        </mxCell>
        <mxCell id="ObGAdsP4N7KiZt7P1WI1-22" value="A1" style="rounded=0;whiteSpace=wrap;html=1;fontStyle=1;fillColor=#ffe6cc;strokeColor=#d79b00;" parent="1" vertex="1">
          <mxGeometry x="10" y="100" width="50" height="50" as="geometry" />
        </mxCell>
        <mxCell id="ObGAdsP4N7KiZt7P1WI1-87" style="edgeStyle=orthogonalEdgeStyle;rounded=0;orthogonalLoop=1;jettySize=auto;html=1;exitX=0.25;exitY=0;exitDx=0;exitDy=0;startArrow=classic;startFill=1;endArrow=none;endFill=0;" parent="1" source="ObGAdsP4N7KiZt7P1WI1-23" edge="1">
          <mxGeometry relative="1" as="geometry">
            <mxPoint x="83" y="60" as="targetPoint" />
          </mxGeometry>
        </mxCell>
        <mxCell id="ObGAdsP4N7KiZt7P1WI1-88" style="edgeStyle=orthogonalEdgeStyle;rounded=0;orthogonalLoop=1;jettySize=auto;html=1;exitX=0.5;exitY=0;exitDx=0;exitDy=0;startArrow=classic;startFill=1;endArrow=none;endFill=0;" parent="1" source="ObGAdsP4N7KiZt7P1WI1-23" edge="1">
          <mxGeometry relative="1" as="geometry">
            <mxPoint x="95" y="60" as="targetPoint" />
          </mxGeometry>
        </mxCell>
        <mxCell id="ObGAdsP4N7KiZt7P1WI1-89" style="edgeStyle=orthogonalEdgeStyle;rounded=0;orthogonalLoop=1;jettySize=auto;html=1;exitX=0.75;exitY=0;exitDx=0;exitDy=0;startArrow=classic;startFill=1;endArrow=none;endFill=0;" parent="1" source="ObGAdsP4N7KiZt7P1WI1-23" edge="1">
          <mxGeometry relative="1" as="geometry">
            <mxPoint x="108" y="60" as="targetPoint" />
          </mxGeometry>
        </mxCell>
        <mxCell id="ObGAdsP4N7KiZt7P1WI1-23" value="A2" style="rounded=0;whiteSpace=wrap;html=1;fontStyle=1;fillColor=#ffe6cc;strokeColor=#d79b00;" parent="1" vertex="1">
          <mxGeometry x="70" y="100" width="50" height="50" as="geometry" />
        </mxCell>
        <mxCell id="ObGAdsP4N7KiZt7P1WI1-90" style="edgeStyle=orthogonalEdgeStyle;rounded=0;orthogonalLoop=1;jettySize=auto;html=1;exitX=0.25;exitY=0;exitDx=0;exitDy=0;startArrow=classic;startFill=1;endArrow=none;endFill=0;" parent="1" source="ObGAdsP4N7KiZt7P1WI1-24" edge="1">
          <mxGeometry relative="1" as="geometry">
            <mxPoint x="143" y="60" as="targetPoint" />
          </mxGeometry>
        </mxCell>
        <mxCell id="ObGAdsP4N7KiZt7P1WI1-91" style="edgeStyle=orthogonalEdgeStyle;rounded=0;orthogonalLoop=1;jettySize=auto;html=1;exitX=0.5;exitY=0;exitDx=0;exitDy=0;startArrow=classic;startFill=1;endArrow=none;endFill=0;" parent="1" source="ObGAdsP4N7KiZt7P1WI1-24" edge="1">
          <mxGeometry relative="1" as="geometry">
            <mxPoint x="155" y="60" as="targetPoint" />
          </mxGeometry>
        </mxCell>
        <mxCell id="ObGAdsP4N7KiZt7P1WI1-92" style="edgeStyle=orthogonalEdgeStyle;rounded=0;orthogonalLoop=1;jettySize=auto;html=1;exitX=0.75;exitY=0;exitDx=0;exitDy=0;startArrow=classic;startFill=1;endArrow=none;endFill=0;" parent="1" source="ObGAdsP4N7KiZt7P1WI1-24" edge="1">
          <mxGeometry relative="1" as="geometry">
            <mxPoint x="168" y="60" as="targetPoint" />
          </mxGeometry>
        </mxCell>
        <mxCell id="ObGAdsP4N7KiZt7P1WI1-24" value="A3" style="rounded=0;whiteSpace=wrap;html=1;fontStyle=1;fillColor=#ffe6cc;strokeColor=#d79b00;" parent="1" vertex="1">
          <mxGeometry x="130" y="100" width="50" height="50" as="geometry" />
        </mxCell>
        <mxCell id="ObGAdsP4N7KiZt7P1WI1-93" style="edgeStyle=orthogonalEdgeStyle;rounded=0;orthogonalLoop=1;jettySize=auto;html=1;exitX=0.25;exitY=0;exitDx=0;exitDy=0;startArrow=classic;startFill=1;endArrow=none;endFill=0;" parent="1" source="ObGAdsP4N7KiZt7P1WI1-25" edge="1">
          <mxGeometry relative="1" as="geometry">
            <mxPoint x="203" y="60" as="targetPoint" />
          </mxGeometry>
        </mxCell>
        <mxCell id="ObGAdsP4N7KiZt7P1WI1-94" style="edgeStyle=orthogonalEdgeStyle;rounded=0;orthogonalLoop=1;jettySize=auto;html=1;exitX=0.5;exitY=0;exitDx=0;exitDy=0;startArrow=classic;startFill=1;endArrow=none;endFill=0;" parent="1" source="ObGAdsP4N7KiZt7P1WI1-25" edge="1">
          <mxGeometry relative="1" as="geometry">
            <mxPoint x="215" y="60" as="targetPoint" />
          </mxGeometry>
        </mxCell>
        <mxCell id="ObGAdsP4N7KiZt7P1WI1-95" style="edgeStyle=orthogonalEdgeStyle;rounded=0;orthogonalLoop=1;jettySize=auto;html=1;exitX=0.75;exitY=0;exitDx=0;exitDy=0;startArrow=classic;startFill=1;endArrow=none;endFill=0;" parent="1" source="ObGAdsP4N7KiZt7P1WI1-25" edge="1">
          <mxGeometry relative="1" as="geometry">
            <mxPoint x="228" y="60" as="targetPoint" />
          </mxGeometry>
        </mxCell>
        <mxCell id="ObGAdsP4N7KiZt7P1WI1-25" value="A4" style="rounded=0;whiteSpace=wrap;html=1;fontStyle=1;fillColor=#ffe6cc;strokeColor=#d79b00;" parent="1" vertex="1">
          <mxGeometry x="190" y="100" width="50" height="50" as="geometry" />
        </mxCell>
        <mxCell id="ObGAdsP4N7KiZt7P1WI1-96" style="edgeStyle=orthogonalEdgeStyle;rounded=0;orthogonalLoop=1;jettySize=auto;html=1;exitX=0.5;exitY=0;exitDx=0;exitDy=0;entryX=0.5;entryY=1;entryDx=0;entryDy=0;startArrow=none;startFill=0;endArrow=classic;endFill=1;" parent="1" source="ObGAdsP4N7KiZt7P1WI1-26" target="ObGAdsP4N7KiZt7P1WI1-51" edge="1">
          <mxGeometry relative="1" as="geometry" />
        </mxCell>
        <mxCell id="ObGAdsP4N7KiZt7P1WI1-97" style="edgeStyle=orthogonalEdgeStyle;rounded=0;orthogonalLoop=1;jettySize=auto;html=1;exitX=0.5;exitY=1;exitDx=0;exitDy=0;entryX=0.5;entryY=0;entryDx=0;entryDy=0;startArrow=none;startFill=0;endArrow=classic;endFill=1;" parent="1" source="ObGAdsP4N7KiZt7P1WI1-26" target="ObGAdsP4N7KiZt7P1WI1-15" edge="1">
          <mxGeometry relative="1" as="geometry" />
        </mxCell>
        <mxCell id="ObGAdsP4N7KiZt7P1WI1-26" value="A5" style="rounded=0;whiteSpace=wrap;html=1;fontStyle=1;fillColor=#ffe6cc;strokeColor=#d79b00;" parent="1" vertex="1">
          <mxGeometry x="260" y="100" width="50" height="50" as="geometry" />
        </mxCell>
        <mxCell id="ObGAdsP4N7KiZt7P1WI1-98" style="edgeStyle=orthogonalEdgeStyle;rounded=0;orthogonalLoop=1;jettySize=auto;html=1;exitX=0.5;exitY=1;exitDx=0;exitDy=0;entryX=0.5;entryY=0;entryDx=0;entryDy=0;startArrow=none;startFill=0;endArrow=classic;endFill=1;" parent="1" source="ObGAdsP4N7KiZt7P1WI1-27" target="ObGAdsP4N7KiZt7P1WI1-15" edge="1">
          <mxGeometry relative="1" as="geometry" />
        </mxCell>
        <mxCell id="ObGAdsP4N7KiZt7P1WI1-99" style="edgeStyle=orthogonalEdgeStyle;rounded=0;orthogonalLoop=1;jettySize=auto;html=1;exitX=0.5;exitY=0;exitDx=0;exitDy=0;entryX=0.5;entryY=1;entryDx=0;entryDy=0;startArrow=none;startFill=0;endArrow=classic;endFill=1;" parent="1" source="ObGAdsP4N7KiZt7P1WI1-27" target="ObGAdsP4N7KiZt7P1WI1-52" edge="1">
          <mxGeometry relative="1" as="geometry" />
        </mxCell>
        <mxCell id="ObGAdsP4N7KiZt7P1WI1-27" value="A6" style="rounded=0;whiteSpace=wrap;html=1;fontStyle=1;fillColor=#ffe6cc;strokeColor=#d79b00;" parent="1" vertex="1">
          <mxGeometry x="320" y="100" width="50" height="50" as="geometry" />
        </mxCell>
        <mxCell id="ObGAdsP4N7KiZt7P1WI1-100" style="edgeStyle=orthogonalEdgeStyle;rounded=0;orthogonalLoop=1;jettySize=auto;html=1;exitX=0.5;exitY=1;exitDx=0;exitDy=0;entryX=0.5;entryY=0;entryDx=0;entryDy=0;startArrow=none;startFill=0;endArrow=classic;endFill=1;" parent="1" source="ObGAdsP4N7KiZt7P1WI1-28" target="ObGAdsP4N7KiZt7P1WI1-15" edge="1">
          <mxGeometry relative="1" as="geometry" />
        </mxCell>
        <mxCell id="ObGAdsP4N7KiZt7P1WI1-28" value="A7" style="rounded=0;whiteSpace=wrap;html=1;fontStyle=1;fillColor=#ffe6cc;strokeColor=#d79b00;" parent="1" vertex="1">
          <mxGeometry x="380" y="100" width="50" height="50" as="geometry" />
        </mxCell>
        <mxCell id="ObGAdsP4N7KiZt7P1WI1-101" style="edgeStyle=orthogonalEdgeStyle;rounded=0;orthogonalLoop=1;jettySize=auto;html=1;exitX=0.5;exitY=1;exitDx=0;exitDy=0;entryX=0.5;entryY=0;entryDx=0;entryDy=0;startArrow=none;startFill=0;endArrow=classic;endFill=1;" parent="1" source="ObGAdsP4N7KiZt7P1WI1-29" target="ObGAdsP4N7KiZt7P1WI1-15" edge="1">
          <mxGeometry relative="1" as="geometry" />
        </mxCell>
        <mxCell id="ObGAdsP4N7KiZt7P1WI1-102" value="" style="edgeStyle=orthogonalEdgeStyle;rounded=0;orthogonalLoop=1;jettySize=auto;html=1;startArrow=none;startFill=0;endArrow=classic;endFill=1;" parent="1" source="ObGAdsP4N7KiZt7P1WI1-29" target="ObGAdsP4N7KiZt7P1WI1-53" edge="1">
          <mxGeometry relative="1" as="geometry" />
        </mxCell>
        <mxCell id="ObGAdsP4N7KiZt7P1WI1-29" value="A8" style="rounded=0;whiteSpace=wrap;html=1;fontStyle=1;fillColor=#ffe6cc;strokeColor=#d79b00;" parent="1" vertex="1">
          <mxGeometry x="440" y="100" width="50" height="50" as="geometry" />
        </mxCell>
        <mxCell id="ObGAdsP4N7KiZt7P1WI1-103" style="edgeStyle=orthogonalEdgeStyle;rounded=0;orthogonalLoop=1;jettySize=auto;html=1;exitX=0.5;exitY=1;exitDx=0;exitDy=0;entryX=0.5;entryY=0;entryDx=0;entryDy=0;startArrow=none;startFill=0;endArrow=classic;endFill=1;" parent="1" source="ObGAdsP4N7KiZt7P1WI1-30" target="ObGAdsP4N7KiZt7P1WI1-15" edge="1">
          <mxGeometry relative="1" as="geometry" />
        </mxCell>
        <mxCell id="ObGAdsP4N7KiZt7P1WI1-30" value="A9" style="rounded=0;whiteSpace=wrap;html=1;fontStyle=1;fillColor=#ffe6cc;strokeColor=#d79b00;" parent="1" vertex="1">
          <mxGeometry x="500" y="100" width="50" height="50" as="geometry" />
        </mxCell>
        <mxCell id="ObGAdsP4N7KiZt7P1WI1-104" value="" style="edgeStyle=orthogonalEdgeStyle;rounded=0;orthogonalLoop=1;jettySize=auto;html=1;startArrow=none;startFill=0;endArrow=classic;endFill=1;" parent="1" source="ObGAdsP4N7KiZt7P1WI1-31" target="ObGAdsP4N7KiZt7P1WI1-16" edge="1">
          <mxGeometry relative="1" as="geometry" />
        </mxCell>
        <mxCell id="ObGAdsP4N7KiZt7P1WI1-105" value="" style="edgeStyle=orthogonalEdgeStyle;rounded=0;orthogonalLoop=1;jettySize=auto;html=1;startArrow=none;startFill=0;endArrow=classic;endFill=1;" parent="1" source="ObGAdsP4N7KiZt7P1WI1-31" target="ObGAdsP4N7KiZt7P1WI1-54" edge="1">
          <mxGeometry relative="1" as="geometry" />
        </mxCell>
        <mxCell id="ObGAdsP4N7KiZt7P1WI1-31" value="A10" style="rounded=0;whiteSpace=wrap;html=1;fontStyle=1;fillColor=#ffe6cc;strokeColor=#d79b00;" parent="1" vertex="1">
          <mxGeometry x="632.5" y="100" width="50" height="50" as="geometry" />
        </mxCell>
        <mxCell id="M5td19MHotdYiMGYQyEI-6" style="edgeStyle=orthogonalEdgeStyle;rounded=0;orthogonalLoop=1;jettySize=auto;html=1;exitX=0.5;exitY=1;exitDx=0;exitDy=0;entryX=0.5;entryY=0;entryDx=0;entryDy=0;" parent="1" source="ObGAdsP4N7KiZt7P1WI1-32" target="ObGAdsP4N7KiZt7P1WI1-15" edge="1">
          <mxGeometry relative="1" as="geometry" />
        </mxCell>
        <mxCell id="ObGAdsP4N7KiZt7P1WI1-32" value="A11" style="rounded=0;whiteSpace=wrap;html=1;fontStyle=1;fillColor=#ffe6cc;strokeColor=#d79b00;" parent="1" vertex="1">
          <mxGeometry x="559.5" y="100" width="50" height="50" as="geometry" />
        </mxCell>
        <mxCell id="ObGAdsP4N7KiZt7P1WI1-109" value="" style="edgeStyle=orthogonalEdgeStyle;rounded=0;orthogonalLoop=1;jettySize=auto;html=1;startArrow=none;startFill=0;endArrow=classic;endFill=1;" parent="1" source="ObGAdsP4N7KiZt7P1WI1-33" target="ObGAdsP4N7KiZt7P1WI1-17" edge="1">
          <mxGeometry relative="1" as="geometry" />
        </mxCell>
        <mxCell id="ObGAdsP4N7KiZt7P1WI1-33" value="A12" style="rounded=0;whiteSpace=wrap;html=1;fontStyle=1;fillColor=#ffe6cc;strokeColor=#d79b00;" parent="1" vertex="1">
          <mxGeometry x="710" y="100" width="50" height="50" as="geometry" />
        </mxCell>
        <mxCell id="ObGAdsP4N7KiZt7P1WI1-110" value="" style="edgeStyle=orthogonalEdgeStyle;rounded=0;orthogonalLoop=1;jettySize=auto;html=1;startArrow=none;startFill=0;endArrow=classic;endFill=1;" parent="1" source="ObGAdsP4N7KiZt7P1WI1-34" target="ObGAdsP4N7KiZt7P1WI1-56" edge="1">
          <mxGeometry relative="1" as="geometry" />
        </mxCell>
        <mxCell id="ObGAdsP4N7KiZt7P1WI1-111" value="" style="edgeStyle=orthogonalEdgeStyle;rounded=0;orthogonalLoop=1;jettySize=auto;html=1;startArrow=none;startFill=0;endArrow=classic;endFill=1;" parent="1" source="ObGAdsP4N7KiZt7P1WI1-34" target="ObGAdsP4N7KiZt7P1WI1-18" edge="1">
          <mxGeometry relative="1" as="geometry" />
        </mxCell>
        <mxCell id="ObGAdsP4N7KiZt7P1WI1-34" value="A13" style="rounded=0;whiteSpace=wrap;html=1;fontStyle=1;fillColor=#ffe6cc;strokeColor=#d79b00;" parent="1" vertex="1">
          <mxGeometry x="10" y="350" width="50" height="50" as="geometry" />
        </mxCell>
        <mxCell id="ObGAdsP4N7KiZt7P1WI1-112" value="" style="edgeStyle=orthogonalEdgeStyle;rounded=0;orthogonalLoop=1;jettySize=auto;html=1;startArrow=none;startFill=0;endArrow=classic;endFill=1;" parent="1" source="ObGAdsP4N7KiZt7P1WI1-35" target="ObGAdsP4N7KiZt7P1WI1-19" edge="1">
          <mxGeometry relative="1" as="geometry" />
        </mxCell>
        <mxCell id="ObGAdsP4N7KiZt7P1WI1-35" value="A14" style="rounded=0;whiteSpace=wrap;html=1;fontStyle=1;fillColor=#ffe6cc;strokeColor=#d79b00;" parent="1" vertex="1">
          <mxGeometry x="80" y="350" width="50" height="50" as="geometry" />
        </mxCell>
        <mxCell id="ObGAdsP4N7KiZt7P1WI1-113" value="" style="edgeStyle=orthogonalEdgeStyle;rounded=0;orthogonalLoop=1;jettySize=auto;html=1;startArrow=none;startFill=0;endArrow=classic;endFill=1;" parent="1" source="ObGAdsP4N7KiZt7P1WI1-36" target="ObGAdsP4N7KiZt7P1WI1-57" edge="1">
          <mxGeometry relative="1" as="geometry" />
        </mxCell>
        <mxCell id="ObGAdsP4N7KiZt7P1WI1-114" value="" style="edgeStyle=orthogonalEdgeStyle;rounded=0;orthogonalLoop=1;jettySize=auto;html=1;startArrow=none;startFill=0;endArrow=classic;endFill=1;exitX=0.5;exitY=1;exitDx=0;exitDy=0;" parent="1" source="ObGAdsP4N7KiZt7P1WI1-36" target="ObGAdsP4N7KiZt7P1WI1-21" edge="1">
          <mxGeometry relative="1" as="geometry" />
        </mxCell>
        <mxCell id="ObGAdsP4N7KiZt7P1WI1-36" value="A15" style="rounded=0;whiteSpace=wrap;html=1;fontStyle=1;fillColor=#ffe6cc;strokeColor=#d79b00;" parent="1" vertex="1">
          <mxGeometry x="152.5" y="350" width="50" height="50" as="geometry" />
        </mxCell>
        <mxCell id="ObGAdsP4N7KiZt7P1WI1-115" value="" style="edgeStyle=orthogonalEdgeStyle;rounded=0;orthogonalLoop=1;jettySize=auto;html=1;startArrow=none;startFill=0;endArrow=classic;endFill=1;" parent="1" source="ObGAdsP4N7KiZt7P1WI1-37" target="ObGAdsP4N7KiZt7P1WI1-58" edge="1">
          <mxGeometry relative="1" as="geometry" />
        </mxCell>
        <mxCell id="ObGAdsP4N7KiZt7P1WI1-118" value="" style="edgeStyle=orthogonalEdgeStyle;rounded=0;orthogonalLoop=1;jettySize=auto;html=1;startArrow=none;startFill=0;endArrow=classic;endFill=1;" parent="1" source="ObGAdsP4N7KiZt7P1WI1-37" target="ObGAdsP4N7KiZt7P1WI1-21" edge="1">
          <mxGeometry relative="1" as="geometry" />
        </mxCell>
        <mxCell id="ObGAdsP4N7KiZt7P1WI1-37" value="A16" style="rounded=0;whiteSpace=wrap;html=1;fontStyle=1;fillColor=#ffe6cc;strokeColor=#d79b00;" parent="1" vertex="1">
          <mxGeometry x="225" y="350" width="50" height="50" as="geometry" />
        </mxCell>
        <mxCell id="ObGAdsP4N7KiZt7P1WI1-116" value="" style="edgeStyle=orthogonalEdgeStyle;rounded=0;orthogonalLoop=1;jettySize=auto;html=1;startArrow=none;startFill=0;endArrow=classic;endFill=1;" parent="1" source="ObGAdsP4N7KiZt7P1WI1-38" target="ObGAdsP4N7KiZt7P1WI1-59" edge="1">
          <mxGeometry relative="1" as="geometry" />
        </mxCell>
        <mxCell id="ObGAdsP4N7KiZt7P1WI1-117" value="" style="edgeStyle=orthogonalEdgeStyle;rounded=0;orthogonalLoop=1;jettySize=auto;html=1;startArrow=none;startFill=0;endArrow=classic;endFill=1;entryX=0.5;entryY=0;entryDx=0;entryDy=0;exitX=0.5;exitY=1;exitDx=0;exitDy=0;" parent="1" source="ObGAdsP4N7KiZt7P1WI1-38" target="ObGAdsP4N7KiZt7P1WI1-21" edge="1">
          <mxGeometry relative="1" as="geometry" />
        </mxCell>
        <mxCell id="ObGAdsP4N7KiZt7P1WI1-38" value="A17" style="rounded=0;whiteSpace=wrap;html=1;fontStyle=1;fillColor=#ffe6cc;strokeColor=#d79b00;" parent="1" vertex="1">
          <mxGeometry x="292.5" y="350" width="50" height="50" as="geometry" />
        </mxCell>
        <mxCell id="ObGAdsP4N7KiZt7P1WI1-119" style="edgeStyle=orthogonalEdgeStyle;rounded=0;orthogonalLoop=1;jettySize=auto;html=1;exitX=0.5;exitY=1;exitDx=0;exitDy=0;entryX=0.5;entryY=0;entryDx=0;entryDy=0;startArrow=none;startFill=0;endArrow=classic;endFill=1;" parent="1" source="ObGAdsP4N7KiZt7P1WI1-39" target="ObGAdsP4N7KiZt7P1WI1-21" edge="1">
          <mxGeometry relative="1" as="geometry" />
        </mxCell>
        <mxCell id="ObGAdsP4N7KiZt7P1WI1-39" value="A18" style="rounded=0;whiteSpace=wrap;html=1;fontStyle=1;fillColor=#ffe6cc;strokeColor=#d79b00;" parent="1" vertex="1">
          <mxGeometry x="362.5" y="350" width="50" height="50" as="geometry" />
        </mxCell>
        <mxCell id="ObGAdsP4N7KiZt7P1WI1-120" value="" style="edgeStyle=orthogonalEdgeStyle;rounded=0;orthogonalLoop=1;jettySize=auto;html=1;startArrow=none;startFill=0;endArrow=classic;endFill=1;exitX=0.5;exitY=1;exitDx=0;exitDy=0;" parent="1" source="ObGAdsP4N7KiZt7P1WI1-40" target="ObGAdsP4N7KiZt7P1WI1-20" edge="1">
          <mxGeometry relative="1" as="geometry" />
        </mxCell>
        <mxCell id="ObGAdsP4N7KiZt7P1WI1-40" value="A19" style="rounded=0;whiteSpace=wrap;html=1;fontStyle=1;fillColor=#ffe6cc;strokeColor=#d79b00;" parent="1" vertex="1">
          <mxGeometry x="428" y="350" width="50" height="50" as="geometry" />
        </mxCell>
        <mxCell id="ObGAdsP4N7KiZt7P1WI1-121" style="edgeStyle=orthogonalEdgeStyle;rounded=0;orthogonalLoop=1;jettySize=auto;html=1;exitX=0.5;exitY=1;exitDx=0;exitDy=0;entryX=0.5;entryY=0;entryDx=0;entryDy=0;startArrow=none;startFill=0;endArrow=classic;endFill=1;" parent="1" source="ObGAdsP4N7KiZt7P1WI1-41" target="ObGAdsP4N7KiZt7P1WI1-20" edge="1">
          <mxGeometry relative="1" as="geometry" />
        </mxCell>
        <mxCell id="ObGAdsP4N7KiZt7P1WI1-122" value="" style="edgeStyle=orthogonalEdgeStyle;rounded=0;orthogonalLoop=1;jettySize=auto;html=1;startArrow=none;startFill=0;endArrow=classic;endFill=1;" parent="1" source="ObGAdsP4N7KiZt7P1WI1-41" target="ObGAdsP4N7KiZt7P1WI1-60" edge="1">
          <mxGeometry relative="1" as="geometry" />
        </mxCell>
        <mxCell id="ObGAdsP4N7KiZt7P1WI1-41" value="A20" style="rounded=0;whiteSpace=wrap;html=1;fontStyle=1;fillColor=#ffe6cc;strokeColor=#d79b00;" parent="1" vertex="1">
          <mxGeometry x="498" y="350" width="50" height="50" as="geometry" />
        </mxCell>
        <mxCell id="ObGAdsP4N7KiZt7P1WI1-123" value="" style="edgeStyle=orthogonalEdgeStyle;rounded=0;orthogonalLoop=1;jettySize=auto;html=1;startArrow=none;startFill=0;endArrow=classic;endFill=1;" parent="1" source="ObGAdsP4N7KiZt7P1WI1-42" target="ObGAdsP4N7KiZt7P1WI1-61" edge="1">
          <mxGeometry relative="1" as="geometry" />
        </mxCell>
        <mxCell id="ObGAdsP4N7KiZt7P1WI1-124" style="edgeStyle=orthogonalEdgeStyle;rounded=0;orthogonalLoop=1;jettySize=auto;html=1;exitX=0.5;exitY=1;exitDx=0;exitDy=0;entryX=0.5;entryY=0;entryDx=0;entryDy=0;startArrow=none;startFill=0;endArrow=classic;endFill=1;" parent="1" source="ObGAdsP4N7KiZt7P1WI1-42" target="ObGAdsP4N7KiZt7P1WI1-20" edge="1">
          <mxGeometry relative="1" as="geometry" />
        </mxCell>
        <mxCell id="ObGAdsP4N7KiZt7P1WI1-42" value="A21" style="rounded=0;whiteSpace=wrap;html=1;fontStyle=1;fillColor=#ffe6cc;strokeColor=#d79b00;" parent="1" vertex="1">
          <mxGeometry x="568" y="350" width="50" height="50" as="geometry" />
        </mxCell>
        <mxCell id="M5td19MHotdYiMGYQyEI-8" style="edgeStyle=orthogonalEdgeStyle;rounded=0;orthogonalLoop=1;jettySize=auto;html=1;exitX=0.5;exitY=1;exitDx=0;exitDy=0;entryX=0.5;entryY=0;entryDx=0;entryDy=0;" parent="1" source="ObGAdsP4N7KiZt7P1WI1-43" target="iH-Qjy_dWgZsUewNH3ee-13" edge="1">
          <mxGeometry relative="1" as="geometry" />
        </mxCell>
        <mxCell id="ObGAdsP4N7KiZt7P1WI1-43" value="A22" style="rounded=0;whiteSpace=wrap;html=1;fontStyle=1;fillColor=#ffe6cc;strokeColor=#d79b00;" parent="1" vertex="1">
          <mxGeometry x="638" y="350" width="50" height="50" as="geometry" />
        </mxCell>
        <mxCell id="ObGAdsP4N7KiZt7P1WI1-127" style="edgeStyle=orthogonalEdgeStyle;rounded=0;orthogonalLoop=1;jettySize=auto;html=1;exitX=0.5;exitY=1;exitDx=0;exitDy=0;entryX=0.5;entryY=0;entryDx=0;entryDy=0;startArrow=none;startFill=0;endArrow=classic;endFill=1;" parent="1" source="ObGAdsP4N7KiZt7P1WI1-44" target="iH-Qjy_dWgZsUewNH3ee-12" edge="1">
          <mxGeometry relative="1" as="geometry" />
        </mxCell>
        <mxCell id="ObGAdsP4N7KiZt7P1WI1-44" value="A23" style="rounded=0;whiteSpace=wrap;html=1;fontStyle=1;fillColor=#ffe6cc;strokeColor=#d79b00;" parent="1" vertex="1">
          <mxGeometry x="10" y="605" width="50" height="50" as="geometry" />
        </mxCell>
        <mxCell id="ObGAdsP4N7KiZt7P1WI1-130" value="" style="edgeStyle=orthogonalEdgeStyle;rounded=0;orthogonalLoop=1;jettySize=auto;html=1;startArrow=none;startFill=0;endArrow=classic;endFill=1;" parent="1" source="ObGAdsP4N7KiZt7P1WI1-45" target="ObGAdsP4N7KiZt7P1WI1-63" edge="1">
          <mxGeometry relative="1" as="geometry" />
        </mxCell>
        <mxCell id="M5td19MHotdYiMGYQyEI-7" style="edgeStyle=orthogonalEdgeStyle;rounded=0;orthogonalLoop=1;jettySize=auto;html=1;entryX=0.5;entryY=0;entryDx=0;entryDy=0;exitX=0.25;exitY=1;exitDx=0;exitDy=0;" parent="1" source="ObGAdsP4N7KiZt7P1WI1-45" target="iH-Qjy_dWgZsUewNH3ee-13" edge="1">
          <mxGeometry relative="1" as="geometry">
            <mxPoint x="745.5" y="420" as="targetPoint" />
          </mxGeometry>
        </mxCell>
        <mxCell id="M5td19MHotdYiMGYQyEI-10" style="edgeStyle=orthogonalEdgeStyle;rounded=0;orthogonalLoop=1;jettySize=auto;html=1;exitX=0.75;exitY=1;exitDx=0;exitDy=0;entryX=0.5;entryY=0;entryDx=0;entryDy=0;" parent="1" source="ObGAdsP4N7KiZt7P1WI1-45" target="iH-Qjy_dWgZsUewNH3ee-8" edge="1">
          <mxGeometry relative="1" as="geometry" />
        </mxCell>
        <mxCell id="3e-dTgeCSKUsHQ2tY7hK-1" style="edgeStyle=orthogonalEdgeStyle;rounded=0;orthogonalLoop=1;jettySize=auto;html=1;exitX=0.5;exitY=1;exitDx=0;exitDy=0;entryX=0.5;entryY=0;entryDx=0;entryDy=0;" edge="1" parent="1" source="ObGAdsP4N7KiZt7P1WI1-45" target="iH-Qjy_dWgZsUewNH3ee-9">
          <mxGeometry relative="1" as="geometry" />
        </mxCell>
        <mxCell id="ObGAdsP4N7KiZt7P1WI1-45" value="A24" style="rounded=0;whiteSpace=wrap;html=1;fontStyle=1;fillColor=#ffe6cc;strokeColor=#d79b00;" parent="1" vertex="1">
          <mxGeometry x="738" y="350" width="50" height="50" as="geometry" />
        </mxCell>
        <mxCell id="M5td19MHotdYiMGYQyEI-11" style="edgeStyle=orthogonalEdgeStyle;rounded=0;orthogonalLoop=1;jettySize=auto;html=1;exitX=0.5;exitY=1;exitDx=0;exitDy=0;entryX=0.5;entryY=0;entryDx=0;entryDy=0;" parent="1" source="ObGAdsP4N7KiZt7P1WI1-46" target="iH-Qjy_dWgZsUewNH3ee-10" edge="1">
          <mxGeometry relative="1" as="geometry" />
        </mxCell>
        <mxCell id="M5td19MHotdYiMGYQyEI-12" style="edgeStyle=orthogonalEdgeStyle;rounded=0;orthogonalLoop=1;jettySize=auto;html=1;exitX=0.5;exitY=1;exitDx=0;exitDy=0;entryX=0.25;entryY=0;entryDx=0;entryDy=0;" parent="1" source="ObGAdsP4N7KiZt7P1WI1-46" target="iH-Qjy_dWgZsUewNH3ee-9" edge="1">
          <mxGeometry relative="1" as="geometry" />
        </mxCell>
        <mxCell id="M5td19MHotdYiMGYQyEI-13" value="" style="edgeStyle=orthogonalEdgeStyle;rounded=0;orthogonalLoop=1;jettySize=auto;html=1;" parent="1" source="ObGAdsP4N7KiZt7P1WI1-46" target="ObGAdsP4N7KiZt7P1WI1-62" edge="1">
          <mxGeometry relative="1" as="geometry" />
        </mxCell>
        <mxCell id="ObGAdsP4N7KiZt7P1WI1-46" value="A25" style="rounded=0;whiteSpace=wrap;html=1;fontStyle=1;fillColor=#ffe6cc;strokeColor=#d79b00;" parent="1" vertex="1">
          <mxGeometry x="688" y="600" width="50" height="50" as="geometry" />
        </mxCell>
        <mxCell id="M5td19MHotdYiMGYQyEI-14" style="edgeStyle=orthogonalEdgeStyle;rounded=0;orthogonalLoop=1;jettySize=auto;html=1;exitX=0.5;exitY=1;exitDx=0;exitDy=0;entryX=0.75;entryY=0;entryDx=0;entryDy=0;" parent="1" source="ObGAdsP4N7KiZt7P1WI1-47" target="iH-Qjy_dWgZsUewNH3ee-9" edge="1">
          <mxGeometry relative="1" as="geometry" />
        </mxCell>
        <mxCell id="ObGAdsP4N7KiZt7P1WI1-47" value="A26" style="rounded=0;whiteSpace=wrap;html=1;fontStyle=1;fillColor=#ffe6cc;strokeColor=#d79b00;" parent="1" vertex="1">
          <mxGeometry x="788" y="600" width="50" height="50" as="geometry" />
        </mxCell>
        <mxCell id="M5td19MHotdYiMGYQyEI-15" style="edgeStyle=orthogonalEdgeStyle;rounded=0;orthogonalLoop=1;jettySize=auto;html=1;exitX=0.5;exitY=1;exitDx=0;exitDy=0;entryX=0.5;entryY=0;entryDx=0;entryDy=0;" parent="1" source="ObGAdsP4N7KiZt7P1WI1-48" target="iH-Qjy_dWgZsUewNH3ee-4" edge="1">
          <mxGeometry relative="1" as="geometry" />
        </mxCell>
        <mxCell id="M5td19MHotdYiMGYQyEI-16" style="edgeStyle=orthogonalEdgeStyle;rounded=0;orthogonalLoop=1;jettySize=auto;html=1;exitX=0.5;exitY=1;exitDx=0;exitDy=0;entryX=0.5;entryY=0;entryDx=0;entryDy=0;" parent="1" source="ObGAdsP4N7KiZt7P1WI1-48" target="iH-Qjy_dWgZsUewNH3ee-3" edge="1">
          <mxGeometry relative="1" as="geometry" />
        </mxCell>
        <mxCell id="ObGAdsP4N7KiZt7P1WI1-48" value="A27" style="rounded=0;whiteSpace=wrap;html=1;fontStyle=1;fillColor=#ffe6cc;strokeColor=#d79b00;" parent="1" vertex="1">
          <mxGeometry x="119.5" y="605" width="50" height="50" as="geometry" />
        </mxCell>
        <mxCell id="ObGAdsP4N7KiZt7P1WI1-51" value="LC1" style="rounded=0;whiteSpace=wrap;html=1;fontStyle=1;fillColor=#f5f5f5;strokeColor=#666666;fontColor=#333333;" parent="1" vertex="1">
          <mxGeometry x="260" y="15" width="50" height="50" as="geometry" />
        </mxCell>
        <mxCell id="ObGAdsP4N7KiZt7P1WI1-52" value="LC2" style="rounded=0;whiteSpace=wrap;html=1;fontStyle=1;fillColor=#f5f5f5;strokeColor=#666666;fontColor=#333333;" parent="1" vertex="1">
          <mxGeometry x="320" y="15" width="50" height="50" as="geometry" />
        </mxCell>
        <mxCell id="ObGAdsP4N7KiZt7P1WI1-53" value="LC3" style="rounded=0;whiteSpace=wrap;html=1;fontStyle=1;fillColor=#f5f5f5;strokeColor=#666666;fontColor=#333333;" parent="1" vertex="1">
          <mxGeometry x="440" y="15" width="50" height="50" as="geometry" />
        </mxCell>
        <mxCell id="ObGAdsP4N7KiZt7P1WI1-54" value="LC4" style="rounded=0;whiteSpace=wrap;html=1;fontStyle=1;fillColor=#f5f5f5;strokeColor=#666666;fontColor=#333333;" parent="1" vertex="1">
          <mxGeometry x="632.5" y="10" width="50" height="50" as="geometry" />
        </mxCell>
        <mxCell id="ObGAdsP4N7KiZt7P1WI1-56" value="LC5" style="rounded=0;whiteSpace=wrap;html=1;fontStyle=1;fillColor=#f5f5f5;strokeColor=#666666;fontColor=#333333;" parent="1" vertex="1">
          <mxGeometry x="10" y="260" width="50" height="50" as="geometry" />
        </mxCell>
        <mxCell id="ObGAdsP4N7KiZt7P1WI1-57" value="LC6" style="rounded=0;whiteSpace=wrap;html=1;fontStyle=1;fillColor=#f5f5f5;strokeColor=#666666;fontColor=#333333;" parent="1" vertex="1">
          <mxGeometry x="152.5" y="260" width="50" height="50" as="geometry" />
        </mxCell>
        <mxCell id="ObGAdsP4N7KiZt7P1WI1-58" value="LC7" style="rounded=0;whiteSpace=wrap;html=1;fontStyle=1;fillColor=#f5f5f5;strokeColor=#666666;fontColor=#333333;" parent="1" vertex="1">
          <mxGeometry x="225" y="260" width="50" height="50" as="geometry" />
        </mxCell>
        <mxCell id="ObGAdsP4N7KiZt7P1WI1-59" value="LC8" style="rounded=0;whiteSpace=wrap;html=1;fontStyle=1;fillColor=#f5f5f5;strokeColor=#666666;fontColor=#333333;" parent="1" vertex="1">
          <mxGeometry x="292.5" y="260" width="50" height="50" as="geometry" />
        </mxCell>
        <mxCell id="ObGAdsP4N7KiZt7P1WI1-60" value="LC9" style="rounded=0;whiteSpace=wrap;html=1;fontStyle=1;fillColor=#f5f5f5;strokeColor=#666666;fontColor=#333333;" parent="1" vertex="1">
          <mxGeometry x="498" y="270" width="50" height="50" as="geometry" />
        </mxCell>
        <mxCell id="ObGAdsP4N7KiZt7P1WI1-61" value="LC10" style="rounded=0;whiteSpace=wrap;html=1;fontStyle=1;fillColor=#f5f5f5;strokeColor=#666666;fontColor=#333333;" parent="1" vertex="1">
          <mxGeometry x="568" y="270" width="50" height="50" as="geometry" />
        </mxCell>
        <mxCell id="ObGAdsP4N7KiZt7P1WI1-62" value="LC12" style="rounded=0;whiteSpace=wrap;html=1;fontStyle=1;fillColor=#f5f5f5;strokeColor=#666666;fontColor=#333333;" parent="1" vertex="1">
          <mxGeometry x="688" y="520" width="50" height="50" as="geometry" />
        </mxCell>
        <mxCell id="ObGAdsP4N7KiZt7P1WI1-63" value="LC11" style="rounded=0;whiteSpace=wrap;html=1;fontStyle=1;fillColor=#f5f5f5;strokeColor=#666666;fontColor=#333333;" parent="1" vertex="1">
          <mxGeometry x="738" y="270" width="50" height="50" as="geometry" />
        </mxCell>
        <mxCell id="ObGAdsP4N7KiZt7P1WI1-66" value="IM1" style="rounded=0;whiteSpace=wrap;html=1;fontStyle=1;fillColor=#fff2cc;strokeColor=#d6b656;" parent="1" vertex="1">
          <mxGeometry x="10" y="920" width="50" height="50" as="geometry" />
        </mxCell>
        <mxCell id="ObGAdsP4N7KiZt7P1WI1-67" value="IM2" style="rounded=0;whiteSpace=wrap;html=1;fontStyle=1;fillColor=#fff2cc;strokeColor=#d6b656;" parent="1" vertex="1">
          <mxGeometry x="70" y="920" width="50" height="50" as="geometry" />
        </mxCell>
        <mxCell id="ObGAdsP4N7KiZt7P1WI1-68" value="IM5" style="rounded=0;whiteSpace=wrap;html=1;fontStyle=1;fillColor=#fff2cc;strokeColor=#d6b656;" parent="1" vertex="1">
          <mxGeometry x="250" y="920" width="50" height="50" as="geometry" />
        </mxCell>
        <mxCell id="ObGAdsP4N7KiZt7P1WI1-69" value="IM8" style="rounded=0;whiteSpace=wrap;html=1;fontStyle=1;fillColor=#fff2cc;strokeColor=#d6b656;" parent="1" vertex="1">
          <mxGeometry x="427" y="690" width="50" height="50" as="geometry" />
        </mxCell>
        <mxCell id="ObGAdsP4N7KiZt7P1WI1-71" value="IM13" style="rounded=0;whiteSpace=wrap;html=1;fontStyle=1;fillColor=#fff2cc;strokeColor=#d6b656;" parent="1" vertex="1">
          <mxGeometry x="728" y="920" width="50" height="50" as="geometry" />
        </mxCell>
        <mxCell id="ObGAdsP4N7KiZt7P1WI1-73" value="IM9" style="rounded=0;whiteSpace=wrap;html=1;fontStyle=1;fillColor=#fff2cc;strokeColor=#d6b656;" parent="1" vertex="1">
          <mxGeometry x="490" y="920" width="50" height="50" as="geometry" />
        </mxCell>
        <mxCell id="ObGAdsP4N7KiZt7P1WI1-74" value="IM10" style="rounded=0;whiteSpace=wrap;html=1;fontStyle=1;fillColor=#fff2cc;strokeColor=#d6b656;" parent="1" vertex="1">
          <mxGeometry x="544.5" y="690" width="50" height="50" as="geometry" />
        </mxCell>
        <mxCell id="ObGAdsP4N7KiZt7P1WI1-76" value="IM11" style="rounded=0;whiteSpace=wrap;html=1;fontStyle=1;fillColor=#fff2cc;strokeColor=#d6b656;" parent="1" vertex="1">
          <mxGeometry x="608" y="920" width="50" height="50" as="geometry" />
        </mxCell>
        <mxCell id="ObGAdsP4N7KiZt7P1WI1-77" value="IM12" style="rounded=0;whiteSpace=wrap;html=1;fontStyle=1;fillColor=#fff2cc;strokeColor=#d6b656;" parent="1" vertex="1">
          <mxGeometry x="292.5" y="690" width="50" height="50" as="geometry" />
        </mxCell>
        <mxCell id="ObGAdsP4N7KiZt7P1WI1-78" value="IM6" style="rounded=0;whiteSpace=wrap;html=1;fontStyle=1;fillColor=#fff2cc;strokeColor=#d6b656;" parent="1" vertex="1">
          <mxGeometry x="359.5" y="690" width="50" height="50" as="geometry" />
        </mxCell>
        <mxCell id="ObGAdsP4N7KiZt7P1WI1-79" value="IM7" style="rounded=0;whiteSpace=wrap;html=1;fontStyle=1;fillColor=#fff2cc;strokeColor=#d6b656;" parent="1" vertex="1">
          <mxGeometry x="370" y="920" width="50" height="50" as="geometry" />
        </mxCell>
        <mxCell id="ObGAdsP4N7KiZt7P1WI1-80" value="IM4" style="rounded=0;whiteSpace=wrap;html=1;fontStyle=1;fillColor=#fff2cc;strokeColor=#d6b656;" parent="1" vertex="1">
          <mxGeometry x="222.5" y="690" width="50" height="50" as="geometry" />
        </mxCell>
        <mxCell id="ObGAdsP4N7KiZt7P1WI1-81" value="IM3" style="rounded=0;whiteSpace=wrap;html=1;fontStyle=1;fillColor=#fff2cc;strokeColor=#d6b656;" parent="1" vertex="1">
          <mxGeometry x="130" y="920" width="50" height="50" as="geometry" />
        </mxCell>
        <mxCell id="ObGAdsP4N7KiZt7P1WI1-82" value="IM15" style="rounded=0;whiteSpace=wrap;html=1;fontStyle=1;fillColor=#fff2cc;strokeColor=#d6b656;" parent="1" vertex="1">
          <mxGeometry x="70" y="980" width="50" height="50" as="geometry" />
        </mxCell>
        <mxCell id="ObGAdsP4N7KiZt7P1WI1-83" value="IM14" style="rounded=0;whiteSpace=wrap;html=1;fontStyle=1;fillColor=#fff2cc;strokeColor=#d6b656;" parent="1" vertex="1">
          <mxGeometry x="10" y="980" width="50" height="50" as="geometry" />
        </mxCell>
        <mxCell id="M5td19MHotdYiMGYQyEI-17" value="" style="edgeStyle=orthogonalEdgeStyle;rounded=0;orthogonalLoop=1;jettySize=auto;html=1;" parent="1" source="M5td19MHotdYiMGYQyEI-1" target="ObGAdsP4N7KiZt7P1WI1-80" edge="1">
          <mxGeometry relative="1" as="geometry" />
        </mxCell>
        <mxCell id="M5td19MHotdYiMGYQyEI-18" style="edgeStyle=orthogonalEdgeStyle;rounded=0;orthogonalLoop=1;jettySize=auto;html=1;exitX=0.5;exitY=1;exitDx=0;exitDy=0;entryX=0.5;entryY=0;entryDx=0;entryDy=0;" parent="1" source="M5td19MHotdYiMGYQyEI-1" target="ObGAdsP4N7KiZt7P1WI1-77" edge="1">
          <mxGeometry relative="1" as="geometry" />
        </mxCell>
        <mxCell id="M5td19MHotdYiMGYQyEI-1" value="A28" style="rounded=0;whiteSpace=wrap;html=1;fontStyle=1;fillColor=#ffe6cc;strokeColor=#d79b00;" parent="1" vertex="1">
          <mxGeometry x="252.5" y="605" width="50" height="50" as="geometry" />
        </mxCell>
        <mxCell id="M5td19MHotdYiMGYQyEI-19" value="" style="edgeStyle=orthogonalEdgeStyle;rounded=0;orthogonalLoop=1;jettySize=auto;html=1;" parent="1" source="M5td19MHotdYiMGYQyEI-2" target="ObGAdsP4N7KiZt7P1WI1-78" edge="1">
          <mxGeometry relative="1" as="geometry" />
        </mxCell>
        <mxCell id="M5td19MHotdYiMGYQyEI-2" value="A29" style="rounded=0;whiteSpace=wrap;html=1;fontStyle=1;fillColor=#ffe6cc;strokeColor=#d79b00;" parent="1" vertex="1">
          <mxGeometry x="359.5" y="605" width="50" height="50" as="geometry" />
        </mxCell>
        <mxCell id="M5td19MHotdYiMGYQyEI-20" value="" style="edgeStyle=orthogonalEdgeStyle;rounded=0;orthogonalLoop=1;jettySize=auto;html=1;" parent="1" source="M5td19MHotdYiMGYQyEI-3" target="ObGAdsP4N7KiZt7P1WI1-69" edge="1">
          <mxGeometry relative="1" as="geometry" />
        </mxCell>
        <mxCell id="M5td19MHotdYiMGYQyEI-3" value="A30" style="rounded=0;whiteSpace=wrap;html=1;fontStyle=1;fillColor=#ffe6cc;strokeColor=#d79b00;" parent="1" vertex="1">
          <mxGeometry x="427" y="605" width="50" height="50" as="geometry" />
        </mxCell>
        <mxCell id="M5td19MHotdYiMGYQyEI-21" style="edgeStyle=orthogonalEdgeStyle;rounded=0;orthogonalLoop=1;jettySize=auto;html=1;exitX=0.5;exitY=1;exitDx=0;exitDy=0;entryX=0.5;entryY=0;entryDx=0;entryDy=0;" parent="1" source="M5td19MHotdYiMGYQyEI-4" target="ObGAdsP4N7KiZt7P1WI1-74" edge="1">
          <mxGeometry relative="1" as="geometry" />
        </mxCell>
        <mxCell id="M5td19MHotdYiMGYQyEI-4" value="A31" style="rounded=0;whiteSpace=wrap;html=1;fontStyle=1;fillColor=#ffe6cc;strokeColor=#d79b00;" parent="1" vertex="1">
          <mxGeometry x="504.5" y="605" width="50" height="50" as="geometry" />
        </mxCell>
        <mxCell id="M5td19MHotdYiMGYQyEI-22" style="edgeStyle=orthogonalEdgeStyle;rounded=0;orthogonalLoop=1;jettySize=auto;html=1;exitX=0.5;exitY=1;exitDx=0;exitDy=0;entryX=0.5;entryY=0;entryDx=0;entryDy=0;" parent="1" source="M5td19MHotdYiMGYQyEI-5" target="ObGAdsP4N7KiZt7P1WI1-74" edge="1">
          <mxGeometry relative="1" as="geometry" />
        </mxCell>
        <mxCell id="M5td19MHotdYiMGYQyEI-5" value="A32" style="rounded=0;whiteSpace=wrap;html=1;fontStyle=1;fillColor=#ffe6cc;strokeColor=#d79b00;" parent="1" vertex="1">
          <mxGeometry x="582.5" y="605" width="50" height="50" as="geometry" />
        </mxCell>
        <mxCell id="M5td19MHotdYiMGYQyEI-23" value="IM16" style="rounded=0;whiteSpace=wrap;html=1;fontStyle=1;fillColor=#fff2cc;strokeColor=#d6b656;" parent="1" vertex="1">
          <mxGeometry x="130" y="980" width="50" height="50" as="geometry" />
        </mxCell>
        <mxCell id="M5td19MHotdYiMGYQyEI-24" value="IM18" style="rounded=0;whiteSpace=wrap;html=1;fontStyle=1;fillColor=#fff2cc;strokeColor=#d6b656;" parent="1" vertex="1">
          <mxGeometry x="250" y="980" width="50" height="50" as="geometry" />
        </mxCell>
        <mxCell id="M5td19MHotdYiMGYQyEI-25" value="IM17" style="rounded=0;whiteSpace=wrap;html=1;fontStyle=1;fillColor=#fff2cc;strokeColor=#d6b656;" parent="1" vertex="1">
          <mxGeometry x="190" y="980" width="50" height="50" as="geometry" />
        </mxCell>
        <mxCell id="M5td19MHotdYiMGYQyEI-26" value="IM19" style="rounded=0;whiteSpace=wrap;html=1;fontStyle=1;fillColor=#fff2cc;strokeColor=#d6b656;" parent="1" vertex="1">
          <mxGeometry x="310" y="980" width="50" height="50" as="geometry" />
        </mxCell>
        <mxCell id="M5td19MHotdYiMGYQyEI-27" value="IM21" style="rounded=0;whiteSpace=wrap;html=1;fontStyle=1;fillColor=#fff2cc;strokeColor=#d6b656;" parent="1" vertex="1">
          <mxGeometry x="430" y="980" width="50" height="50" as="geometry" />
        </mxCell>
        <mxCell id="M5td19MHotdYiMGYQyEI-28" value="IM20" style="rounded=0;whiteSpace=wrap;html=1;fontStyle=1;fillColor=#fff2cc;strokeColor=#d6b656;" parent="1" vertex="1">
          <mxGeometry x="370" y="980" width="50" height="50" as="geometry" />
        </mxCell>
        <mxCell id="M5td19MHotdYiMGYQyEI-29" value="IM22" style="rounded=0;whiteSpace=wrap;html=1;fontStyle=1;fillColor=#fff2cc;strokeColor=#d6b656;" parent="1" vertex="1">
          <mxGeometry x="490" y="980" width="50" height="50" as="geometry" />
        </mxCell>
        <mxCell id="M5td19MHotdYiMGYQyEI-30" value="IM24" style="rounded=0;whiteSpace=wrap;html=1;fontStyle=1;fillColor=#fff2cc;strokeColor=#d6b656;" parent="1" vertex="1">
          <mxGeometry x="609.5" y="980" width="50" height="50" as="geometry" />
        </mxCell>
        <mxCell id="M5td19MHotdYiMGYQyEI-31" value="IM23" style="rounded=0;whiteSpace=wrap;html=1;fontStyle=1;fillColor=#fff2cc;strokeColor=#d6b656;" parent="1" vertex="1">
          <mxGeometry x="550" y="980" width="50" height="50" as="geometry" />
        </mxCell>
      </root>
    </mxGraphModel>
  </diagram>
</mxfile>
